<svg width="148" height="39" viewBox="0 0 148 39" fill="none" xmlns="http://www.w3.org/2000/svg">
<g clip-path="url(#clip0_1123_5591)">
<path d="M48.5651 13.3005C44.4832 13.3005 41.4844 16.466 41.4844 20.3812C41.4844 24.4908 44.6499 27.6285 48.7872 27.6285C51.8971 27.6285 54.6461 25.6292 55.3958 23.2412L51.7028 22.6304C50.9808 23.6022 50.009 24.102 48.7872 24.102C46.9823 24.102 45.705 23.1579 45.6495 21.714H55.618V20.6867C55.6457 16.5493 52.6746 13.3005 48.5651 13.3005ZM45.6495 18.854C45.705 17.8266 47.0378 16.8825 48.5651 16.8825C50.1478 16.8825 51.3418 17.7988 51.4529 18.854H45.6495Z" fill="#161E3F"/>
<path d="M63.2262 17.3823L60.4495 13.6892H55.6458V13.9113L60.6994 20.4367L56.09 27.0453V27.2674H60.7827L63.2262 23.7688L65.6698 27.2674H70.418V26.9898L65.8641 20.4367L70.89 13.9113V13.6892H66.0307L63.2262 17.3823Z" fill="#161E3F"/>
<path d="M77.1933 9.88525H76.3603L70.8901 16.9937V17.3824H72.9727V19.3539C72.9727 24.6297 77.0545 27.4342 81.6639 27.4342V23.2969C79.3036 23.2691 77.1656 22.1029 77.1656 19.3539V17.3824H81.6639V14.328V13.7171H77.2211V9.88525H77.1933Z" fill="#161E3F"/>
<path d="M88.7167 16.3549L88.6889 13.6892L84.5793 13.6615V27.2397H88.6889V23.5189C88.6889 19.4648 91.7156 17.1879 94.9643 17.1879L93.6593 13.3838C92.1598 13.3838 89.633 14.3834 88.7167 16.3549Z" fill="#161E3F"/>
<path d="M106.071 13.6337V14.9387C105.072 13.9391 103.683 13.2727 101.906 13.2727C98.4631 13.2727 95.4919 16.4104 95.4919 20.4089C95.4919 24.4352 98.4631 27.6284 101.906 27.6284C103.683 27.6284 105.072 26.9065 106.071 25.8791V27.2397H109.987V13.6337H106.071ZM102.961 23.8798C101.073 23.8798 99.546 22.3526 99.546 20.4089C99.546 18.493 101.073 16.9658 102.961 16.9658C104.85 16.9658 106.071 18.493 106.071 20.4089C106.071 22.3526 104.85 23.8798 102.961 23.8798Z" fill="#161E3F"/>
<path d="M116.29 22.9358H111.986V27.2675H116.29V22.9358Z" fill="#161E3F"/>
<path d="M128.23 13.6337V14.9387C127.23 13.9391 125.842 13.2727 124.065 13.2727C120.621 13.2727 117.65 16.4104 117.65 20.4089C117.65 24.4352 120.621 27.6284 124.065 27.6284C125.703 27.6284 127.008 27.0175 127.98 26.1012V27.1564C127.98 28.6003 126.619 29.822 124.787 29.822C123.565 29.822 122.649 29.3222 121.927 28.3504L118.178 29.0446C118.928 31.4326 121.704 33.4596 124.842 33.4596C128.979 33.4596 132.173 30.3219 132.173 26.1845V23.3523V22.7691V13.6337H128.23ZM125.12 23.8798C123.232 23.8798 121.704 22.3526 121.704 20.4089C121.704 18.493 123.232 16.9658 125.12 16.9658C127.008 16.9658 128.23 18.493 128.23 20.4089C128.23 22.3526 127.008 23.8798 125.12 23.8798Z" fill="#161E3F"/>
<path d="M143.779 18.7986C143.668 17.7434 142.474 16.7993 140.892 16.7993C139.364 16.7993 138.032 17.7434 137.976 18.7986H143.779ZM137.976 21.6586C138.032 23.1025 139.309 24.0466 141.142 24.0466C142.363 24.0466 143.335 23.5468 144.057 22.5749L147.778 23.2136C147.028 25.6016 144.252 27.6286 141.114 27.6286C136.976 27.6286 133.783 24.4909 133.783 20.3536C133.783 16.4384 136.81 13.2451 140.892 13.2451C145.029 13.2451 148 16.4939 148 20.6312V21.6586H137.976Z" fill="#161E3F"/>
<path d="M29.9055 18.1599L25.2961 21.5198L30.2943 36.8751L34.9036 33.5153L29.9055 18.1599Z" fill="#00AAFF"/>
<path d="M20.0757 32.0157L11.6067 38.1522L6.99731 34.8202L20.0757 25.3237L33.1264 34.8202L28.517 38.1522L20.0757 32.0157Z" fill="#7A1DFF"/>
<path d="M1.74934 12.0232L14.8278 21.5196L9.82964 36.875L5.22026 33.5151L8.46904 23.5744L0 17.4378L1.74934 12.0232Z" fill="#F72163"/>
<path d="M12.8841 9.94071L16.1329 0H21.8252L16.8271 15.3553H0.666504L2.44361 9.94071H12.8841Z" fill="#FD5601"/>
<path d="M27.2397 9.94071L24.0187 0H18.2986L23.2967 15.3553H39.4573L37.6802 9.94071H27.2397Z" fill="#FFC208"/>
<path d="M39.4574 15.3553L37.7081 9.94067L20.0758 22.7414L12.6619 17.3823L10.9126 22.797C15.4664 26.129 20.0758 29.4611 20.0758 29.4611L39.4574 15.3553Z" fill="#9DE411"/>
</g>
<defs>
<clipPath id="clip0_1123_5591">
<rect width="148" height="38.1523" fill="white"/>
</clipPath>
</defs>
</svg>
