<svg width="22" height="22" viewBox="0 0 22 22" fill="none" xmlns="http://www.w3.org/2000/svg">
<path d="M8.24967 20.1673C8.75594 20.1673 9.16634 19.7569 9.16634 19.2507C9.16634 18.7444 8.75594 18.334 8.24967 18.334C7.74341 18.334 7.33301 18.7444 7.33301 19.2507C7.33301 19.7569 7.74341 20.1673 8.24967 20.1673Z" stroke="black" stroke-width="2" stroke-linecap="round" stroke-linejoin="round"/>
<path d="M18.3327 20.1673C18.8389 20.1673 19.2493 19.7569 19.2493 19.2507C19.2493 18.7444 18.8389 18.334 18.3327 18.334C17.8264 18.334 17.416 18.7444 17.416 19.2507C17.416 19.7569 17.8264 20.1673 18.3327 20.1673Z" stroke="black" stroke-width="2" stroke-linecap="round" stroke-linejoin="round"/>
<path d="M0.916016 0.917969H4.58268L7.03935 13.1921C7.12317 13.6142 7.35277 13.9933 7.68793 14.2631C8.0231 14.5329 8.44249 14.6762 8.87268 14.668H17.7827C18.2129 14.6762 18.6323 14.5329 18.9674 14.2631C19.3026 13.9933 19.5322 13.6142 19.616 13.1921L21.0827 5.5013H5.49935" stroke="black" stroke-width="2" stroke-linecap="round" stroke-linejoin="round"/>
</svg>
