<svg width="22" height="23" viewBox="0 0 22 23" fill="none" xmlns="http://www.w3.org/2000/svg">
<path d="M8.24967 21.1243C8.75594 21.1243 9.16634 20.7139 9.16634 20.2077C9.16634 19.7014 8.75594 19.291 8.24967 19.291C7.74341 19.291 7.33301 19.7014 7.33301 20.2077C7.33301 20.7139 7.74341 21.1243 8.24967 21.1243Z" stroke="#FF5D47" stroke-width="2" stroke-linecap="round" stroke-linejoin="round"/>
<path d="M18.3327 21.1243C18.8389 21.1243 19.2493 20.7139 19.2493 20.2077C19.2493 19.7014 18.8389 19.291 18.3327 19.291C17.8264 19.291 17.416 19.7014 17.416 20.2077C17.416 20.7139 17.8264 21.1243 18.3327 21.1243Z" stroke="#FF5D47" stroke-width="2" stroke-linecap="round" stroke-linejoin="round"/>
<path d="M0.916016 1.875H4.58268L7.03935 14.1492C7.12317 14.5712 7.35277 14.9503 7.68793 15.2201C8.0231 15.4899 8.44249 15.6332 8.87268 15.625H17.7827C18.2129 15.6332 18.6323 15.4899 18.9674 15.2201C19.3026 14.9503 19.5322 14.5712 19.616 14.1492L21.0827 6.45833H5.49935" stroke="#FF5D47" stroke-width="2" stroke-linecap="round" stroke-linejoin="round"/>
</svg>
