<svg width="10" height="10" viewBox="0 0 10 10" fill="none" xmlns="http://www.w3.org/2000/svg">
<path d="M1.17119 9.65415C0.933691 9.65415 0.696191 9.56665 0.508691 9.37915C0.146191 9.01665 0.146191 8.41665 0.508691 8.05415L7.58369 0.97915C7.94619 0.61665 8.54619 0.61665 8.90869 0.97915C9.27119 1.34165 9.27119 1.94165 8.90869 2.30415L1.83369 9.37915C1.65869 9.56665 1.40869 9.65415 1.17119 9.65415Z" fill="#252C32"/>
<path d="M8.24619 9.65415C8.00869 9.65415 7.77119 9.56665 7.58369 9.37915L0.508691 2.30415C0.146191 1.94165 0.146191 1.34165 0.508691 0.97915C0.871191 0.61665 1.47119 0.61665 1.83369 0.97915L8.90869 8.05415C9.27119 8.41665 9.27119 9.01665 8.90869 9.37915C8.72119 9.56665 8.48369 9.65415 8.24619 9.65415Z" fill="#252C32"/>
</svg>
