<svg width="10" height="10" viewBox="0 0 10 10" fill="none" xmlns="http://www.w3.org/2000/svg">
<path d="M1.17168 9.91587C0.934179 9.91587 0.69668 9.82837 0.50918 9.64087C0.14668 9.27837 0.14668 8.67837 0.50918 8.31587L7.58418 1.24087C7.94668 0.878369 8.54668 0.878369 8.90918 1.24087C9.27168 1.60337 9.27168 2.20337 8.90918 2.56587L1.83418 9.64087C1.65918 9.82837 1.40918 9.91587 1.17168 9.91587Z" fill="white"/>
<path d="M8.24668 9.91587C8.00918 9.91587 7.77168 9.82837 7.58418 9.64087L0.50918 2.56587C0.14668 2.20337 0.14668 1.60337 0.50918 1.24087C0.87168 0.878369 1.47168 0.878369 1.83418 1.24087L8.90918 8.31587C9.27168 8.67837 9.27168 9.27837 8.90918 9.64087C8.72168 9.82837 8.48418 9.91587 8.24668 9.91587Z" fill="white"/>
</svg>
