<svg width="15" height="17" viewBox="0 0 15 17" fill="none" xmlns="http://www.w3.org/2000/svg">
<path fill-rule="evenodd" clip-rule="evenodd" d="M9.15849 13.3696C9.15849 14.9385 10.4689 16.2148 12.0792 16.2148C13.6896 16.2148 15 14.9385 15 13.3696C15 11.7997 13.6896 10.5225 12.0792 10.5225C10.4689 10.5225 9.15849 11.7997 9.15849 13.3696ZM10.5736 13.3696C10.5736 12.5559 11.2491 11.8939 12.0792 11.8939C12.9104 11.8939 13.5849 12.5559 13.5849 13.3696C13.5849 14.1824 12.9104 14.8434 12.0792 14.8434C11.2491 14.8434 10.5736 14.1824 10.5736 13.3696ZM11.4083 6.6883C11.4083 7.06681 11.7253 7.37402 12.1158 7.37402C12.5064 7.37402 12.8234 7.06681 12.8234 6.6883L12.8234 0.927351C12.8234 0.548834 12.5064 0.241632 12.1158 0.241632C11.7253 0.241632 11.4083 0.548834 11.4083 0.927351L11.4083 6.6883ZM0 3.06103C0 4.63087 1.31132 5.90722 2.9217 5.90722C4.53208 5.90722 5.84151 4.63087 5.84151 3.06103C5.84151 1.49211 4.53208 0.214844 2.9217 0.214844C1.31132 0.214844 0 1.49211 0 3.06103ZM1.41509 3.06103C1.41509 2.24823 2.09057 1.58628 2.9217 1.58628C3.75189 1.58628 4.42642 2.24823 4.42642 3.06103C4.42642 3.87475 3.75189 4.53578 2.9217 4.53578C2.09057 4.53578 1.41509 3.87475 1.41509 3.06103ZM2.26453 15.0182C2.26453 15.3967 2.58151 15.7039 2.97208 15.7039C3.36264 15.7039 3.67962 15.3967 3.67962 15.0182L3.67962 9.25819C3.67962 8.87967 3.36264 8.57247 2.97208 8.57247C2.58151 8.57247 2.26453 8.87967 2.26453 9.25819L2.26453 15.0182Z" fill="#424242"/>
</svg>
