<svg width="13" height="13" viewBox="0 0 13 13" fill="none" xmlns="http://www.w3.org/2000/svg">
<path d="M11.7114 7.15911C11.7114 6.31148 11.4182 5.48288 10.8688 4.77809C10.3194 4.07331 9.53847 3.524 8.62484 3.19963C7.71121 2.87525 6.70588 2.79038 5.73598 2.95574C4.76607 3.12111 3.87516 3.52928 3.17589 4.12865C2.47663 4.72802 2.00043 5.49166 1.8075 6.32301C1.61458 7.15436 1.71359 8.01607 2.09203 8.79918C2.47047 9.58229 3.11133 10.2516 3.93358 10.7226C4.75582 11.1935 5.72252 11.4448 6.71143 11.4448M1.71143 11.4448H11.7114M5.04476 1.44482V6.44482M8.37809 6.44482V1.44482" stroke="#373E44" stroke-width="1.7" stroke-linecap="round" stroke-linejoin="round"/>
</svg>
