<svg width="22" height="19" viewBox="0 0 22 19" fill="none"   xmlns="http://www.w3.org/2000/svg">
<path d="M18.1036 2.22555C17.6354 1.75714 17.0795 1.38556 16.4677 1.13205C15.8558 0.878532 15.2001 0.748047 14.5378 0.748047C13.8755 0.748047 13.2197 0.878532 12.6079 1.13205C11.996 1.38556 11.4401 1.75714 10.9719 2.22555L10.0003 3.19722L9.02861 2.22555C8.08289 1.27984 6.80022 0.748537 5.46277 0.748537C4.12532 0.748537 2.84266 1.27984 1.89694 2.22555C0.951221 3.17127 0.419922 4.45394 0.419922 5.79139C0.419922 7.12883 0.951221 8.4115 1.89694 9.35722L2.8686 10.3289L10.0003 17.4606L17.1319 10.3289L18.1036 9.35722C18.572 8.88903 18.9436 8.33313 19.1971 7.7213C19.4506 7.10946 19.5811 6.45367 19.5811 5.79139C19.5811 5.12911 19.4506 4.47332 19.1971 3.86148C18.9436 3.24964 18.572 2.69375 18.1036 2.22555Z" fill="#FF5D47" />
</svg>
