<svg width="22" height="19" viewBox="0 0 22 19" fill="none" xmlns="http://www.w3.org/2000/svg">
<path d="M19.1036 2.72555C18.6354 2.25714 18.0795 1.88556 17.4677 1.63205C16.8558 1.37853 16.2001 1.24805 15.5378 1.24805C14.8755 1.24805 14.2197 1.37853 13.6079 1.63205C12.996 1.88556 12.4401 2.25714 11.9719 2.72555L11.0003 3.69722L10.0286 2.72555C9.08289 1.77984 7.80022 1.24854 6.46277 1.24854C5.12532 1.24854 3.84266 1.77984 2.89694 2.72555C1.95122 3.67127 1.41992 4.95394 1.41992 6.29139C1.41992 7.62883 1.95122 8.9115 2.89694 9.85722L3.8686 10.8289L11.0003 17.9606L18.1319 10.8289L19.1036 9.85722C19.572 9.38903 19.9436 8.83313 20.1971 8.2213C20.4506 7.60946 20.5811 6.95367 20.5811 6.29139C20.5811 5.62911 20.4506 4.97332 20.1971 4.36148C19.9436 3.74964 19.572 3.19375 19.1036 2.72555Z" stroke="black" stroke-width="2" stroke-linecap="round" stroke-linejoin="round"/>
</svg>
