<svg width="17" height="17" viewBox="0 0 17 17" fill="none" xmlns="http://www.w3.org/2000/svg">
<g clip-path="url(#clip0_1638_7559)">
<path d="M14.8828 7.24475C14.8828 11.9114 8.88281 15.9114 8.88281 15.9114C8.88281 15.9114 2.88281 11.9114 2.88281 7.24475C2.88281 5.65345 3.51495 4.12733 4.64017 3.00211C5.76539 1.87689 7.29151 1.24475 8.88281 1.24475C10.4741 1.24475 12.0002 1.87689 13.1255 3.00211C14.2507 4.12733 14.8828 5.65345 14.8828 7.24475Z" stroke="black" stroke-linecap="round" stroke-linejoin="round"/>
<path d="M8.88281 9.24475C9.98738 9.24475 10.8828 8.34932 10.8828 7.24475C10.8828 6.14018 9.98738 5.24475 8.88281 5.24475C7.77824 5.24475 6.88281 6.14018 6.88281 7.24475C6.88281 8.34932 7.77824 9.24475 8.88281 9.24475Z" stroke="black" stroke-linecap="round" stroke-linejoin="round"/>
</g>
<defs>
<clipPath id="clip0_1638_7559">
<rect width="16" height="16" fill="white" transform="translate(0.882812 0.578125)"/>
</clipPath>
</defs>
</svg>
