<svg width="22" height="22" viewBox="0 0 22 22" fill="none" xmlns="http://www.w3.org/2000/svg">
<path d="M2.09961 7.13246V16.0516C2.09961 17.7933 3.33711 18.5083 4.84044 17.6466L6.99461 16.4183C7.46211 16.1525 8.24128 16.125 8.72711 16.3725L13.5396 18.7833C14.0254 19.0216 14.8046 19.0033 15.2721 18.7375L19.2413 16.4641C19.7454 16.1708 20.1671 15.4558 20.1671 14.8691V5.94996C20.1671 4.20829 18.9296 3.49329 17.4263 4.35496L15.2721 5.58329C14.8046 5.84913 14.0254 5.87662 13.5396 5.62912L8.72711 3.22746C8.24128 2.98912 7.46211 3.00746 6.99461 3.27329L3.02544 5.54663C2.51211 5.83996 2.09961 6.55496 2.09961 7.13246Z" stroke="white" stroke-width="1.5" stroke-linecap="round" stroke-linejoin="round"/>
<path d="M7.84668 3.66602V15.5827" stroke="white" stroke-width="1.5" stroke-linecap="round" stroke-linejoin="round"/>
<path d="M14.4189 6.06836V18.3334" stroke="white" stroke-width="1.5" stroke-linecap="round" stroke-linejoin="round"/>
</svg>
