<svg width="17" height="17" viewBox="0 0 17 17" fill="none" xmlns="http://www.w3.org/2000/svg">
<g clip-path="url(#clip0_1638_7565)">
<path d="M10.9164 3.91142C11.5676 4.03846 12.166 4.35692 12.6351 4.82604C13.1043 5.29516 13.4227 5.89359 13.5498 6.54475M10.9164 1.24475C12.2693 1.39504 13.5308 2.00087 14.4939 2.96276C15.457 3.92464 16.0644 5.18542 16.2164 6.53808M15.5498 11.8581V13.8581C15.5505 14.0438 15.5125 14.2275 15.4381 14.3976C15.3637 14.5678 15.2546 14.7205 15.1178 14.846C14.981 14.9715 14.8195 15.0671 14.6436 15.1266C14.4677 15.186 14.2813 15.2081 14.0964 15.1914C12.045 14.9685 10.0744 14.2675 8.34309 13.1448C6.73231 12.1212 5.36665 10.7555 4.34309 9.14475C3.21641 7.40555 2.51526 5.42541 2.29643 3.36475C2.27977 3.1804 2.30168 2.99459 2.36076 2.81917C2.41984 2.64374 2.51481 2.48254 2.6396 2.34583C2.7644 2.20912 2.9163 2.09989 3.08562 2.0251C3.25494 1.95031 3.43799 1.91159 3.62309 1.91142H5.62309C5.94663 1.90823 6.26029 2.0228 6.5056 2.23377C6.75091 2.44474 6.91114 2.73772 6.95643 3.05808C7.04084 3.69813 7.19739 4.32657 7.42309 4.93142C7.51279 5.17003 7.5322 5.42936 7.47903 5.67867C7.42586 5.92798 7.30234 6.15682 7.12309 6.33808L6.27643 7.18475C7.22546 8.85378 8.6074 10.2357 10.2764 11.1848L11.1231 10.3381C11.3044 10.1588 11.5332 10.0353 11.7825 9.98215C12.0318 9.92898 12.2911 9.94839 12.5298 10.0381C13.1346 10.2638 13.7631 10.4203 14.4031 10.5048C14.7269 10.5504 15.0227 10.7136 15.2341 10.9631C15.4455 11.2126 15.5579 11.5311 15.5498 11.8581Z" stroke="black" stroke-linecap="round" stroke-linejoin="round"/>
</g>
<defs>
<clipPath id="clip0_1638_7565">
<rect width="16" height="16" fill="white" transform="translate(0.882812 0.578125)"/>
</clipPath>
</defs>
</svg>
