<svg width="22" height="19" viewBox="0 0 22 19" fill="none" xmlns="http://www.w3.org/2000/svg">
<path d="M19.1036 2.7258C18.6354 2.25739 18.0795 1.88581 17.4677 1.63229C16.8558 1.37878 16.2001 1.24829 15.5378 1.24829C14.8755 1.24829 14.2197 1.37878 13.6079 1.63229C12.996 1.88581 12.4401 2.25739 11.9719 2.7258L11.0003 3.69746L10.0286 2.7258C9.08289 1.78008 7.80022 1.24878 6.46277 1.24878C5.12532 1.24878 3.84266 1.78008 2.89694 2.7258C1.95122 3.67152 1.41992 4.95418 1.41992 6.29163C1.41992 7.62908 1.95122 8.91175 2.89694 9.85746L3.8686 10.8291L11.0003 17.9608L18.1319 10.8291L19.1036 9.85746C19.572 9.38927 19.9436 8.83338 20.1971 8.22154C20.4506 7.6097 20.5811 6.95391 20.5811 6.29163C20.5811 5.62935 20.4506 4.97356 20.1971 4.36172C19.9436 3.74988 19.572 3.19399 19.1036 2.7258Z" stroke="black" stroke-width="2" stroke-linecap="round" stroke-linejoin="round"/>
</svg>
