<svg width="15" height="14" viewBox="0 0 15 14" fill="none" xmlns="http://www.w3.org/2000/svg">
<path d="M6.24888 1.07078C6.8358 0.126812 8.20967 0.126813 8.79659 1.07078L10.0561 3.09654C10.2626 3.42867 10.5907 3.66701 10.9703 3.76077L13.2862 4.33265C14.3653 4.59914 14.7899 5.90577 14.0734 6.75566L12.5361 8.57953C12.284 8.87855 12.1587 9.2642 12.1868 9.65428L12.3586 12.0335C12.4386 13.1421 11.3271 13.9497 10.2974 13.531L8.08777 12.6324C7.72548 12.4851 7.31999 12.4851 6.95771 12.6324L4.74803 13.531C3.71835 13.9497 2.60686 13.1421 2.68689 12.0335L2.85863 9.65428C2.88678 9.2642 2.76148 8.87855 2.50942 8.57953L0.972025 6.75566C0.255622 5.90577 0.680173 4.59914 1.75931 4.33265L4.07513 3.76077C4.45481 3.66701 4.78287 3.42867 4.98937 3.09654L6.24888 1.07078Z" fill="#F8C51B"/>
</svg>
