<svg width="12" height="12" viewBox="0 0 12 12" fill="none" xmlns="http://www.w3.org/2000/svg">
<g clip-path="url(#clip0_1638_7423)">
<g opacity="0.4">
<path d="M8.49982 2.82815C7.87902 2.20496 7.06559 1.8102 6.1919 1.70809C5.3182 1.60599 4.43567 1.80255 3.6879 2.2658C2.94012 2.72905 2.37112 3.43172 2.07348 4.25947C1.77583 5.08722 1.76707 5.99134 2.0486 6.82471C2.33014 7.65807 2.88541 8.37164 3.62406 8.84931C4.36271 9.32697 5.24127 9.54061 6.11678 9.45546C6.99228 9.37032 7.81321 8.9914 8.44599 8.38037C9.07876 7.76934 9.48614 6.96215 9.60182 6.09015L9.60882 6.03415C9.61738 5.91103 9.67209 5.79568 9.762 5.71114C9.85191 5.62661 9.97041 5.57911 10.0938 5.57815C10.3468 5.57815 10.5448 5.78415 10.5308 6.03515C10.5308 6.03515 10.5428 5.92615 10.5248 6.09615C10.4072 7.18312 9.92301 8.19765 9.15194 8.97276C8.38087 9.74787 7.36888 10.2374 6.28254 10.3607C5.19619 10.4839 4.10025 10.2337 3.17508 9.65112C2.24992 9.06853 1.55067 8.18831 1.19244 7.15535C0.834216 6.12239 0.838352 4.99824 1.20417 3.96794C1.56999 2.93764 2.27569 2.06259 3.20512 1.48683C4.13455 0.911064 5.23231 0.668894 6.31771 0.800182C7.40312 0.931469 8.41148 1.42839 9.17682 2.20915V1.22215C9.17696 1.16194 9.18895 1.10234 9.21211 1.04677C9.23527 0.991188 9.26915 0.940717 9.31182 0.898234C9.35449 0.855751 9.40511 0.822089 9.46079 0.799168C9.51647 0.776248 9.57611 0.764518 9.63632 0.76465C9.69654 0.764781 9.75613 0.77677 9.81171 0.799933C9.86729 0.823097 9.91776 0.85698 9.96024 0.899648C10.0027 0.942317 10.0364 0.992935 10.0593 1.04861C10.0822 1.10429 10.094 1.16394 10.0938 1.22415V3.28615C10.0938 3.40788 10.0455 3.52463 9.95939 3.61071C9.87331 3.69679 9.75656 3.74515 9.63482 3.74515H7.57382C7.51361 3.74528 7.45397 3.73355 7.39829 3.71063C7.34261 3.68771 7.29199 3.65405 7.24932 3.61157C7.16315 3.52577 7.11459 3.40925 7.11432 3.28765C7.11406 3.16605 7.16211 3.04932 7.24791 2.96315C7.33371 2.87698 7.45022 2.82841 7.57182 2.82815H8.49982Z" fill="#21243D"/>
</g>
</g>
<defs>
<clipPath id="clip0_1638_7423">
<rect width="11" height="11" fill="white" transform="translate(0.240234 0.078125)"/>
</clipPath>
</defs>
</svg>
