<svg width="14" height="12" viewBox="0 0 14 12" fill="none" xmlns="http://www.w3.org/2000/svg">
<path d="M6.97819 11.2496L12.5811 5.64587L12.5873 5.6397L12.5874 5.63976C12.8729 5.36399 13.1006 5.03411 13.2573 4.66939C13.414 4.30466 13.4964 3.91238 13.4999 3.51544C13.5033 3.1185 13.4277 2.72485 13.2774 2.35746C13.1271 1.99006 12.9051 1.65628 12.6244 1.37559C12.3437 1.09491 12.0099 0.872928 11.6425 0.722615C11.2751 0.572302 10.8815 0.496664 10.4846 0.500113C10.0876 0.503562 9.69534 0.58603 9.33061 0.742705C8.96589 0.89938 8.63601 1.12712 8.36025 1.41265L8.35406 1.41905L8.354 1.419L7.33159 2.44054L6.97819 2.79364L6.62479 2.44054L5.60237 1.419L5.60227 1.4189C5.04167 0.858461 4.28142 0.543624 3.48872 0.543624C2.69607 0.543624 1.93587 0.858421 1.37528 1.41879C1.37524 1.41883 1.3752 1.41886 1.37517 1.4189M6.97819 11.2496L1.37517 1.4189M6.97819 11.2496L1.37528 5.6459M6.97819 11.2496L1.37528 5.6459M1.37517 1.4189C0.814797 1.9795 0.5 2.7397 0.5 3.53235C0.5 4.32503 0.814826 5.08527 1.37525 5.64587M1.37517 1.4189L1.37525 5.64587M1.37525 5.64587C1.37526 5.64588 1.37527 5.64589 1.37528 5.6459M1.37525 5.64587L1.37528 5.6459" stroke="#2D2D2D"/>
</svg>
