<svg width="14" height="13" viewBox="0 0 14 13" fill="none" xmlns="http://www.w3.org/2000/svg">
<path fill-rule="evenodd" clip-rule="evenodd" d="M1.02167 1.20201C1.67604 0.547838 2.56344 0.180343 3.48872 0.180343C4.414 0.180343 5.3014 0.547838 5.95577 1.20201L6.97819 2.22355L8.0006 1.20201C8.32249 0.868732 8.70754 0.602897 9.13327 0.420017C9.559 0.237138 10.0169 0.140877 10.4802 0.136851C10.9435 0.132824 11.403 0.221114 11.8319 0.396567C12.2607 0.572021 12.6503 0.831124 12.978 1.15876C13.3056 1.4864 13.5647 1.876 13.7402 2.30484C13.9156 2.73369 14.0039 3.19318 13.9999 3.65651C13.9958 4.11984 13.8996 4.57772 13.7167 5.00345C13.5338 5.42918 13.268 5.81423 12.9347 6.13612L6.97819 12.0935L1.02167 6.13612C0.367494 5.48175 0 4.59435 0 3.66906C0 2.74378 0.367494 1.85638 1.02167 1.20201Z" fill="#FF4848"/>
</svg>
