<svg width="10" height="10" viewBox="0 0 10 10" fill="none" xmlns="http://www.w3.org/2000/svg">
<path d="M1.90801 9.25791C1.67051 9.25791 1.43301 9.17041 1.24551 8.98291C0.883008 8.62041 0.883008 8.02041 1.24551 7.65791L8.32051 0.58291C8.68301 0.22041 9.28301 0.22041 9.64551 0.58291C10.008 0.94541 10.008 1.54541 9.64551 1.90791L2.57051 8.98291C2.39551 9.17041 2.14551 9.25791 1.90801 9.25791Z" fill="black"/>
<path d="M8.98301 9.25791C8.74551 9.25791 8.50801 9.17041 8.32051 8.98291L1.24551 1.90791C0.883008 1.54541 0.883008 0.94541 1.24551 0.58291C1.60801 0.22041 2.20801 0.22041 2.57051 0.58291L9.64551 7.65791C10.008 8.02041 10.008 8.62041 9.64551 8.98291C9.45801 9.17041 9.22051 9.25791 8.98301 9.25791Z" fill="black"/>
</svg>
