 <svg  version="1.0" xmlns="http://www.w3.org/2000/svg"  width="300.000000pt" height="490.000000pt" viewBox="0 0 300.000000 490.000000"  preserveAspectRatio="xMidYMid meet">  <g transform="translate(0.000000,490.000000) scale(0.100000,-0.100000)" fill="#ff6347" stroke="none"> <path d="M1380 4474 c-241 -21 -512 -118 -730 -262 -117 -77 -302 -262 -378 -378 -174 -267 -252 -526 -252 -836 0 -236 59 -475 173 -703 107 -216 369 -630 757 -1200 73 -107 493 -694 517 -723 l28 -34 34 49 c19 26 88 120 153 208 128 173 220 302 338 477 81 119 195 283 232 335 29 39 132 193 196 293 421 649 525 911 524 1315 0 254 -52 453 -181 695 -201 378 -571 650 -1006 738 -97 20 -313 33 -405 26z m460 -72 c137 -36 192 -57 325 -123 193 -97 405 -283 525 -459 119 -175 217 -424 245 -622 19 -141 10 -331 -25 -503 -42 -212 -184 -504 -413 -853 -12 -18 -46 -70 -75 -115 -134 -209 -676 -999 -708 -1031 -12 -13 -161 -219 -187 -259 -31 -49 -35 -46 -162 128 -36 50 -81 113 -100 140 -53 78 -223 319 -234 331 -5 6 -40 58 -78 115 -38 57 -143 214 -234 348 -90 134 -182 271 -205 305 -69 103 -231 381 -274 472 -149 311 -191 482 -186 764 2 152 6 188 29 275 48 180 112 340 172 429 14 20 25 40 25 44 0 12 107 151 158 204 140 148 380 300 577 366 218 73 274 82 515 77 178 -3 205 -6 310 -33z"/> <path d="M1271 4383 c-40 -6 -87 -17 -106 -23 -18 -6 -46 -13 -62 -16 -32 -6 -205 -75 -266 -106 -161 -82 -346 -245 -481 -425 -107 -142 -192 -337 -237 -543 -33 -154 -32 -390 4 -545 39 -171 103 -319 202 -470 68 -103 99 -141 209 -248 153 -149 325 -249 567 -331 74 -25 159 -48 189 -51 30 -2 66 -7 80 -10 33 -7 196 -7 240 -1 19 3 67 10 105 15 100 15 300 83 408 138 368 188 624 503 728 898 44 167 57 355 35 514 -55 398 -274 754 -605 980 -143 98 -373 191 -531 215 -19 3 -57 11 -85 16 -63 14 -298 9 -394 -7z m454 -39 c108 -18 267 -70 380 -123 262 -123 505 -373 632 -651 85 -187 123 -357 123 -555 0 -523 -289 -987 -760 -1221 -329 -163 -680 -193 -1002 -84 -117 40 -302 132 -393 195 -107 76 -271 245 -348 360 -155 235 -227 470 -227 746 0 342 127 659 371 923 197 213 455 353 759 411 96 19 357 18 465 -1z"/> <path d="M1320 4273 c-85 -14 -242 -59 -325 -92 -488 -196 -818 -709 -792 -1231 17 -334 153 -622 412 -871 260 -250 629 -380 987 -349 576 50 1044 465 1164 1030 26 122 26 395 0 505 -60 256 -165 445 -356 636 -160 160 -289 242 -488 309 -163 54 -261 70 -427 69 -82 -1 -161 -4 -175 -6z m267 -24 c80 -2 101 -6 243 -41 242 -61 462 -202 638 -410 113 -132 144 -185 211 -353 129 -322 97 -733 -81 -1047 -43 -76 -42 -75 -88 -129 -16 -20 -30 -41 -30 -45 0 -9 -144 -151 -196 -194 -177 -144 -443 -250 -679 -269 -247 -20 -444 20 -675 136 -342 173 -597 501 -677 873 -24 114 -24 362 0 472 65 297 238 571 472 748 146 110 286 177 480 229 73 20 246 41 287 35 9 -2 52 -4 95 -5z"/> <path d="M1380 4124 c-8 -1 -49 -8 -90 -14 -135 -22 -279 -77 -358 -136 -23 -18 -64 -37 -91 -44 -51 -12 -70 -28 -113 -93 -14 -20 -43 -56 -65 -80 -112 -121 -179 -236 -237 -407 -93 -279 -77 -560 46 -820 73 -151 149 -246 315 -392 13 -11 28 -39 34 -61 14 -54 72 -115 117 -123 19 -4 58 -1 88 5 39 9 59 9 73 1 33 -17 183 -58 257 -70 152 -24 372 2 520 62 44 18 58 19 101 10 66 -15 118 0 160 44 18 20 35 51 39 72 5 23 18 46 38 62 67 55 145 139 200 213 59 81 133 216 147 271 4 17 16 62 28 99 11 37 22 98 26 135 3 37 8 81 10 98 8 49 -12 242 -34 324 -57 214 -175 410 -336 557 -58 54 -67 67 -70 104 -11 102 -107 154 -193 104 -22 -14 -34 -16 -44 -8 -18 15 -169 59 -259 76 -65 12 -260 19 -309 11z m301 -39 c106 -19 235 -58 259 -80 16 -15 20 -14 55 10 53 35 89 33 131 -9 30 -30 34 -40 34 -89 0 -51 2 -55 30 -67 65 -27 227 -231 298 -375 46 -94 79 -204 98 -326 50 -328 -74 -683 -321 -917 -40 -39 -82 -73 -94 -77 -16 -5 -21 -15 -21 -43 0 -38 -23 -82 -56 -107 -27 -20 -123 -19 -153 1 -21 15 -24 15 -32 1 -10 -18 -135 -61 -229 -78 -36 -7 -121 -13 -190 -13 -134 0 -240 20 -366 70 -57 23 -63 23 -97 9 -53 -22 -91 -19 -127 11 -38 32 -60 74 -60 112 0 24 -10 35 -56 67 -132 91 -268 284 -332 470 -50 149 -67 352 -41 518 13 84 67 244 114 337 38 75 135 209 189 260 21 19 43 49 50 65 19 45 43 65 79 65 21 0 50 13 82 36 108 78 258 132 435 158 66 9 246 4 321 -9z"/> <path d="M1418 4022 c-31 -4 -105 -81 -166 -172 -28 -42 -37 -67 -40 -110 -6 -87 2 -103 21 -41 9 30 28 73 42 96 32 56 119 133 153 137 24 3 27 8 30 42 4 45 -3 53 -40 48z"/> <path d="M1538 3976 c3 -39 7 -45 32 -49 75 -16 189 -169 206 -278 11 -75 20 -73 37 8 l17 77 -23 26 c-13 14 -38 48 -55 76 -44 70 -164 184 -194 184 -21 0 -23 -3 -20 -44z"/> <path d="M1690 4014 c0 -4 29 -37 65 -75 35 -38 71 -82 80 -99 8 -16 17 -30 19 -30 3 0 10 17 16 38 7 20 22 47 33 59 11 13 18 26 15 29 -10 10 -228 84 -228 78z m155 -87 c10 -8 15 -19 11 -26 -9 -14 -22 -7 -36 20 -12 22 -2 25 25 6z"/> <path d="M1160 3967 c-52 -18 -115 -43 -140 -56 l-45 -24 38 -17 c35 -16 42 -16 70 -2 28 14 33 14 58 -1 27 -15 28 -14 45 11 9 15 35 48 56 75 22 26 34 47 26 46 -7 0 -56 -15 -108 -32z m24 -42 c-11 -26 -64 -31 -64 -5 0 8 21 15 57 19 7 0 10 -5 7 -14z"/> <path d="M2023 3946 c-107 -91 -180 -346 -190 -666 -5 -174 -4 -188 15 -226 11 -22 37 -51 56 -65 20 -13 42 -39 48 -56 12 -32 14 -33 70 -33 l58 0 0 535 c0 585 3 561 -57 511z m24 -513 c1 -272 -3 -465 -8 -475 -16 -29 -31 -22 -96 45 -84 83 -90 111 -75 324 13 182 62 425 93 458 5 5 9 15 9 23 0 18 50 82 64 82 9 0 13 -109 13 -457z"/> <path d="M1419 3847 c-122 -65 -184 -271 -128 -423 25 -66 94 -142 138 -150 l29 -6 -6 -607 c-4 -457 -2 -612 7 -629 16 -30 66 -30 82 0 9 16 10 159 5 572 -4 303 -9 574 -12 603 l-6 52 46 22 c52 24 74 51 113 136 70 152 2 373 -131 434 -54 25 -84 24 -137 -4z m138 -36 c66 -41 123 -158 123 -256 0 -106 -37 -172 -150 -268 l-33 -28 -33 32 c-33 32 -33 32 -11 43 31 16 32 48 4 82 -61 74 -67 181 -17 276 35 68 36 75 13 100 -15 17 -15 20 -3 28 24 16 73 11 107 -9z m-107 -36 c0 -2 -14 -26 -30 -52 -36 -56 -50 -102 -50 -164 0 -69 26 -135 68 -169 33 -27 35 -30 14 -30 -37 0 -59 17 -89 68 -25 42 -28 57 -27 132 0 92 13 134 58 188 24 27 56 43 56 27z m51 -922 c10 -132 15 -780 7 -789 -5 -4 -11 -4 -15 0 -11 11 -12 806 -1 806 4 0 9 -8 9 -17z"/> <path d="M823 3814 c-3 -9 -3 -133 1 -277 8 -295 14 -322 83 -355 l36 -17 -7 -135 c-31 -618 -35 -913 -10 -948 20 -29 55 -28 84 3 l23 25 -6 529 -6 529 24 6 c33 9 74 54 85 96 5 19 10 148 11 285 l2 250 -25 3 c-25 3 -25 3 -31 -110 -4 -62 -7 -170 -7 -240 l0 -128 -30 0 -30 0 -2 238 -3 237 -25 0 -25 0 -5 -232 c-5 -242 -9 -261 -49 -248 -20 6 -21 14 -23 133 -2 70 -2 172 0 226 4 125 -1 146 -34 146 -13 0 -27 -7 -31 -16z m193 -505 c3 -6 24 -9 45 -7 22 2 39 0 39 -5 0 -21 -33 -66 -74 -100 l-46 -38 -55 55 c-32 33 -55 64 -55 77 0 16 4 19 18 14 37 -15 48 -15 67 -1 24 18 51 20 61 5z m-30 -376 c2 -62 5 -736 4 -791 0 -26 -4 -33 -17 -30 -13 2 -20 17 -24 53 -7 57 -5 282 5 465 3 69 9 174 12 235 5 95 9 125 17 125 1 0 3 -26 3 -57z"/> <path d="M2150 3699 c0 -69 3 -85 24 -112 79 -105 149 -323 168 -522 l3 -30 91 5 90 5 -13 90 c-25 176 -87 327 -194 470 -62 83 -146 175 -160 175 -5 0 -9 -36 -9 -81z m118 -73 c77 -98 141 -216 177 -325 30 -92 46 -206 31 -221 -12 -12 -76 -13 -92 -2 -6 4 -19 52 -29 107 -31 176 -64 268 -141 396 -31 52 -43 106 -27 122 9 10 27 -7 81 -77z"/> <path d="M701 3642 c-128 -173 -202 -352 -226 -545 l-7 -57 89 0 90 0 6 84 c4 61 19 123 53 227 41 125 47 157 51 251 3 60 3 108 0 108 -3 0 -28 -31 -56 -68z m23 -111 c-6 -50 -19 -99 -40 -146 -26 -60 -43 -122 -55 -205 -14 -98 -21 -110 -59 -110 -69 0 -73 17 -36 161 39 154 164 395 186 359 5 -8 6 -34 4 -59z"/> <path d="M2148 3267 l-3 -227 66 0 66 0 -17 98 c-25 137 -69 286 -100 341 -6 10 -10 -67 -12 -212z m62 -39 c6 -29 14 -77 17 -106 6 -52 5 -54 -18 -50 -21 3 -25 10 -30 58 -7 62 0 150 12 150 4 0 13 -24 19 -52z"/> <path d="M1771 3458 c-3 -77 -88 -216 -142 -233 -17 -6 -19 -17 -19 -111 l0 -104 90 0 91 0 -13 23 c-18 32 -23 266 -8 347 7 36 10 74 7 85 -4 15 -5 14 -6 -7z m-41 -281 c1 -34 3 -78 3 -97 2 -33 0 -35 -31 -38 -54 -5 -65 12 -59 87 4 59 8 68 38 92 19 15 37 25 40 23 4 -2 8 -32 9 -67z"/> <path d="M1210 3347 c0 -116 -19 -166 -80 -211 -37 -28 -40 -33 -40 -78 l0 -48 153 0 152 0 -3 103 c-3 100 -4 103 -30 115 -38 17 -91 85 -117 149 -12 29 -25 56 -29 60 -3 3 -6 -37 -6 -90z m137 -157 c16 -20 17 -125 1 -138 -17 -13 -183 -15 -208 -2 -28 15 -25 24 21 72 45 46 78 108 79 147 0 22 3 21 48 -20 26 -24 52 -50 59 -59z"/> <path d="M737 3198 c-24 -174 -30 -158 61 -158 l78 0 -4 38 c-3 25 -15 48 -38 72 -38 40 -64 96 -64 140 0 16 -4 30 -8 30 -5 0 -16 -55 -25 -122z m85 -83 c4 -5 8 -18 8 -28 0 -15 -7 -18 -32 -15 -28 3 -34 7 -36 31 -2 16 -1 36 2 44 6 14 9 13 29 -3 12 -11 25 -23 29 -29z"/> <path d="M475 2908 c18 -164 72 -320 153 -442 62 -93 186 -236 205 -236 9 0 11 26 10 90 -2 79 -5 94 -27 123 -69 90 -151 318 -162 447 l-7 80 -89 0 -90 0 7 -62z m132 20 c4 -7 15 -53 24 -103 21 -114 87 -290 139 -370 39 -60 54 -125 31 -139 -24 -15 -178 201 -224 314 -44 106 -77 260 -64 295 8 19 82 21 94 3z"/> <path d="M713 2956 c3 -8 11 -51 17 -96 11 -83 49 -204 91 -295 l23 -50 7 55 c4 30 9 133 11 228 l3 172 -79 0 c-64 0 -77 -3 -73 -14z m105 -29 c17 -12 17 -237 -1 -237 -31 0 -75 223 -47 240 14 9 29 8 48 -3z"/> <path d="M2145 2745 c0 -183 2 -222 12 -208 34 45 95 257 108 371 l7 62 -64 0 -63 0 0 -225z m83 161 c4 -34 -26 -173 -39 -181 -5 -4 -9 13 -10 37 0 24 -1 69 -2 101 -1 41 3 61 14 68 21 13 34 5 37 -25z"/> <path d="M2333 2907 c-3 -133 -59 -308 -135 -427 -41 -64 -41 -67 -44 -164 l-3 -100 55 55 c172 168 272 368 308 616 l13 83 -96 0 -96 0 -2 -63z m150 -2 c-8 -138 -67 -303 -161 -446 -49 -73 -131 -162 -133 -144 -5 50 6 97 35 145 71 117 111 229 132 364 8 55 17 103 20 108 3 5 29 8 57 6 51 -3 52 -4 50 -33z"/> <path d="M1094 2934 c3 -9 6 -93 6 -187 l0 -172 137 3 c76 2 140 6 143 10 3 4 4 87 2 185 l-3 177 -146 0 c-128 0 -144 -2 -139 -16z m247 -30 c5 -7 8 -73 7 -150 l-3 -139 -105 0 -105 0 -3 143 c-3 140 -2 143 20 152 31 13 177 8 189 -6z"/> <path d="M1610 2765 l0 -185 140 0 140 0 -1 165 0 164 -29 21 c-24 17 -44 20 -139 20 l-111 0 0 -185z m233 136 c12 -12 18 -263 6 -275 -9 -9 -176 -14 -189 -6 -20 13 -21 268 -1 288 18 18 165 12 184 -7z"/> <path d="M1958 2468 c3 -325 5 -375 19 -390 21 -24 58 -23 83 2 19 19 20 33 20 390 l0 370 -62 0 -63 0 3 -372z m83 330 c4 -16 9 -647 5 -664 -7 -28 -40 -33 -50 -8 -8 20 -7 640 1 660 4 11 41 21 44 12z"/> <path d="M1674 2503 l-60 -4 4 -223 c4 -195 2 -226 -12 -255 -19 -36 -17 -45 7 -36 35 14 144 227 156 306 11 65 -3 82 -18 22 -7 -26 -29 -81 -48 -122 -31 -63 -38 -71 -44 -53 -10 27 -13 307 -4 322 4 7 29 10 60 9 36 -2 61 3 77 14 22 15 22 16 3 17 -11 0 -29 2 -40 3 -11 2 -47 2 -81 0z"/> <path d="M1830 2508 c0 -2 -2 -66 -4 -143 -3 -137 -3 -142 -40 -225 -21 -47 -47 -95 -58 -107 -29 -31 -12 -30 89 2 l78 24 -7 113 c-3 62 -7 164 -7 226 l-1 112 -25 0 c-14 0 -25 -1 -25 -2z m8 -429 c-19 -13 -38 -11 -38 4 0 6 10 32 22 57 l23 45 3 -49 c2 -33 -1 -52 -10 -57z"/> <path d="M1100 2296 c0 -112 -3 -211 -6 -220 -4 -11 -1 -16 10 -16 9 0 44 -11 78 -25 34 -14 63 -24 64 -22 2 2 -19 54 -46 117 -38 90 -50 132 -56 195 -8 82 -8 134 0 142 9 9 179 3 191 -7 15 -13 22 -375 7 -384 -8 -4 -65 105 -103 199 -11 27 -13 28 -16 9 -4 -22 47 -166 86 -242 16 -32 29 -43 58 -51 54 -15 55 -15 33 26 -18 35 -20 57 -20 260 l0 223 -140 0 -140 0 0 -204z m70 -174 c14 -36 9 -48 -15 -39 -10 4 -15 20 -15 49 0 45 9 42 30 -10z"/> <path d="M1380 1529 c-73 -33 -119 -85 -149 -167 -43 -117 -16 -229 78 -323 65 -65 125 -86 219 -76 136 14 267 186 248 324 -12 92 -70 180 -151 231 -56 36 -179 41 -245 11z m187 -24 c33 -10 65 -29 91 -55 61 -61 77 -102 77 -195 0 -76 -2 -83 -39 -138 -59 -89 -94 -111 -183 -115 -96 -5 -115 1 -169 50 -122 112 -132 271 -27 389 66 73 148 94 250 64z"/> <path d="M1445 1438 c-66 -24 -125 -107 -125 -178 0 -49 30 -109 73 -147 68 -60 143 -56 211 10 74 70 84 162 29 241 -47 66 -125 97 -188 74z m92 -33 c33 -9 93 -81 94 -113 3 -85 -13 -128 -61 -162 -51 -36 -91 -37 -143 -2 -50 35 -69 72 -71 136 -1 58 44 125 94 143 34 11 42 11 87 -2z"/> <path d="M1432 1355 c-18 -15 -37 -44 -44 -66 -10 -35 -9 -44 7 -72 27 -46 44 -56 92 -57 104 0 154 140 70 195 -46 30 -90 30 -125 0z m110 -25 c74 -58 4 -176 -82 -140 -56 23 -66 79 -24 129 31 37 69 41 106 11z"/> <path d="M288 4143 c-14 -2 -32 -11 -38 -19 -8 -8 -31 -14 -60 -14 -82 0 -105 -9 -145 -57 -26 -31 -31 -42 -17 -34 12 6 27 19 34 29 20 28 36 35 107 43 36 4 86 15 111 24 35 13 63 16 129 11 66 -4 82 -3 72 7 -12 12 -142 19 -193 10z"/> <path d="M2849 4124 c-11 -14 -9 -20 15 -41 16 -13 35 -22 43 -19 8 3 23 6 34 6 10 0 19 7 19 15 0 8 -5 15 -11 15 -6 0 -22 9 -36 20 -31 24 -46 25 -64 4z m59 -21 c2 -8 -5 -13 -17 -13 -12 0 -21 6 -21 16 0 18 31 15 38 -3z"/> <path d="M0 4085 c0 -17 5 -25 12 -22 17 5 17 39 1 45 -8 2 -13 -6 -13 -23z"/> <path d="M2890 4005 c-30 -8 -70 -14 -89 -15 -30 0 -108 -37 -98 -46 2 -2 19 2 38 10 46 19 225 50 245 42 10 -4 14 -1 12 6 -6 18 -44 19 -108 3z"/> <path d="M0 3931 c0 -6 18 -11 42 -11 29 0 49 -7 65 -22 17 -15 23 -17 23 -7 0 21 -32 37 -84 44 -30 5 -46 3 -46 -4z"/> <path d="M147 3795 c3 -38 7 -72 9 -74 8 -8 2 95 -7 119 -5 16 -6 -1 -2 -45z"/> <path d="M0 3615 c0 -3 6 -15 13 -26 10 -17 10 -23 0 -26 -7 -3 -13 -9 -13 -14 0 -15 37 8 44 28 5 11 1 22 -10 30 -18 13 -34 17 -34 8z"/> <path d="M2936 2468 c30 -50 64 -89 64 -74 0 20 -48 86 -62 86 -5 0 -6 -6 -2 -12z"/> <path d="M0 2331 c0 -4 24 -19 53 -32 28 -13 66 -29 82 -37 l30 -14 -29 31 c-35 37 -136 76 -136 52z"/> <path d="M2925 2319 c-4 -6 4 -23 17 -37 14 -15 32 -38 41 -52 15 -21 17 -22 17 -6 0 11 -7 28 -17 38 -11 13 -12 18 -3 18 10 0 10 3 0 16 -21 24 -48 36 -55 23z"/> <path d="M450 1688 c-14 -11 -37 -25 -52 -30 -18 -7 -34 -25 -48 -56 -45 -100 -56 -117 -97 -145 -36 -24 -43 -34 -43 -62 0 -32 -2 -34 -55 -49 -51 -15 -54 -18 -60 -54 -3 -20 -13 -49 -21 -64 -22 -40 -17 -45 16 -13 24 23 29 35 27 69 l-2 41 50 5 c70 7 76 13 68 65 -6 45 -6 45 24 45 17 0 35 6 41 13 25 30 54 94 61 131 6 36 12 44 54 66 47 25 89 60 72 60 -6 -1 -21 -10 -35 -22z"/> <path d="M2534 1595 c-8 -20 -5 -23 31 -27 24 -2 30 1 30 17 0 26 -52 35 -61 10z"/> <path d="M2763 1594 c-3 -8 -1 -20 5 -26 16 -16 47 -5 50 20 3 18 -1 22 -23 22 -14 0 -28 -7 -32 -16z"/> <path d="M2680 1586 c0 -15 24 -28 34 -19 13 14 5 33 -14 33 -11 0 -20 -6 -20 -14z"/> <path d="M56 1155 c3 -8 -4 -32 -17 -54 -20 -35 -21 -45 -11 -77 10 -33 9 -36 -9 -31 -27 7 -24 -8 6 -27 30 -20 90 -23 64 -3 -21 16 -49 71 -49 96 0 11 14 36 30 55 30 34 30 35 11 45 -26 15 -31 14 -25 -4z"/> <path d="M2807 997 c4 -20 -1 -25 -39 -36 -71 -21 -147 -76 -169 -124 -10 -23 -19 -54 -19 -69 0 -26 -3 -28 -45 -28 -25 0 -45 -4 -45 -10 0 -5 20 -10 44 -10 44 0 44 0 51 -40 10 -59 57 -117 118 -146 29 -13 60 -24 69 -24 9 0 24 -10 32 -22 11 -15 16 -18 16 -8 0 9 21 23 51 33 52 19 129 80 129 103 0 7 -14 0 -32 -17 -18 -16 -37 -27 -43 -25 -5 2 -21 -5 -35 -14 -14 -10 -34 -20 -45 -24 -19 -5 -20 -1 -20 94 0 55 2 95 3 90 2 -6 41 -10 88 -10 68 0 84 3 84 15 0 12 -16 15 -84 15 l-84 0 -4 98 c-3 53 -4 99 -2 101 2 2 23 -8 47 -22 46 -27 89 -76 101 -115 5 -13 10 -21 13 -18 8 7 -27 86 -37 86 -5 0 -10 7 -14 15 -5 13 -2 13 20 -1 13 -9 29 -24 34 -33 8 -14 9 -14 10 2 0 10 -11 29 -25 43 -25 25 -119 74 -142 74 -7 0 -13 11 -13 25 0 14 -4 25 -9 25 -4 0 -6 -10 -4 -23z m-8 -162 l1 -95 -71 0 -72 0 7 42 c9 53 29 86 74 121 55 42 59 38 61 -68z m-102 50 c-36 -35 -64 -103 -53 -131 4 -10 -2 -14 -18 -14 -24 0 -24 1 -12 48 17 63 33 86 75 111 49 28 50 26 8 -14z m-41 -211 c5 -25 12 -44 15 -42 3 2 13 -3 22 -11 21 -16 22 -8 3 22 -8 12 -17 32 -20 44 -6 20 -3 21 57 25 l64 3 -1 -92 c-1 -107 -1 -107 -84 -68 -45 21 -56 32 -77 77 -28 60 -30 74 -12 81 22 9 24 8 33 -39z"/> <path d="M1225 229 c-360 -4 -491 -9 -525 -19 -25 -7 -53 -12 -64 -11 -11 2 -16 -2 -11 -9 4 -6 9 -9 13 -6 3 3 10 -1 16 -9 28 -38 569 -71 991 -61 449 10 663 29 714 63 l26 17 -50 12 c-94 24 -432 31 -1110 23z m996 -23 c84 -9 113 -20 90 -35 -7 -5 -32 -9 -55 -10 -22 0 -52 -3 -66 -6 -63 -13 -323 -20 -750 -20 -399 0 -485 3 -603 19 -118 16 -136 21 -125 33 11 10 62 16 194 21 232 9 1216 7 1315 -2z"/> </g> </svg> 