<svg width="100" height="100" viewBox="0 0 100 100" fill="none" xmlns="http://www.w3.org/2000/svg">
<circle cx="50" cy="50" r="50" fill="#F1EDDE"/>
<g clip-path="url(#clip0_1638_5097)">
<path d="M67.6054 35.2544C61.4173 30.915 58.2034 25.9326 56.6766 22.9603C56.1139 21.8349 53.221 22.7592 51.4535 23.4825C50.5292 23.8441 49.4849 23.8441 48.5606 23.4825C46.7525 22.7592 43.9001 21.8349 43.3374 22.9603C41.8503 25.9732 38.6364 30.9556 32.4086 35.2544C18.8683 44.697 7.53733 77.6032 50.007 77.6032C92.4758 77.6032 81.1458 44.697 67.6054 35.2544Z" fill="#FCFBE2"/>
<path d="M20.5555 61.0095C20.5555 61.0095 21.038 78.7287 50.0061 78.7287C78.9751 78.7287 79.4576 61.0095 79.4576 61.0095C79.4576 61.0095 71.824 73.8266 50.0061 73.8266C28.1901 73.8266 20.5555 61.0095 20.5555 61.0095Z" fill="#EDE6AB"/>
<path d="M32.4483 45.5402C32.2878 45.5402 32.1273 45.4996 31.9658 45.4599C31.2426 45.1785 30.9216 44.4156 31.1624 43.6915C33.7739 36.8208 42.2516 32.4814 42.6132 32.3208C43.2968 31.9998 44.1003 32.2406 44.4213 32.9232C44.7433 33.6059 44.5016 34.4094 43.8189 34.771C43.7387 34.8116 35.9436 38.7488 33.7343 44.6555C33.5332 45.2191 33.011 45.5402 32.4483 45.5402ZM42.3725 47.0272C42.212 47.0272 42.0911 46.9866 41.9306 46.947C41.2074 46.7062 40.8458 45.9424 41.0469 45.2191C42.8549 39.7949 45.2257 37.0228 45.306 36.9019C45.7885 36.3392 46.6722 36.259 47.2349 36.7811C47.7977 37.2636 47.8779 38.1473 47.3558 38.71C47.3152 38.7506 45.2257 41.2413 43.6188 46.1029C43.4573 46.6656 42.9352 47.0272 42.3725 47.0272ZM67.444 46.2634C66.8416 46.2634 66.3185 45.8621 66.1184 45.2588C64.0695 37.9868 57.3999 34.7719 57.3187 34.7313C56.6361 34.4103 56.3547 33.6068 56.6757 32.9232C56.9968 32.2397 57.8012 31.9592 58.4838 32.2803C58.8048 32.4408 66.3185 36.0173 68.7299 44.5346C68.931 45.2579 68.5288 46.0217 67.8056 46.2219C67.6857 46.2634 67.5648 46.2634 67.444 46.2634ZM58.3242 47.0272C57.7218 47.0272 57.1988 46.625 56.9977 46.0632C55.5512 41.1214 53.3012 38.5098 53.2616 38.4693C52.7791 37.9065 52.8197 37.0634 53.3815 36.5403C53.9442 36.0579 54.7874 36.0985 55.3104 36.6602C55.4313 36.7811 58.0023 39.7543 59.6093 45.2994C59.8104 46.0226 59.4081 46.7855 58.6858 46.9866C58.565 46.9866 58.4441 47.0272 58.3242 47.0272Z" fill="#4C2F1B"/>
<path d="M55.4709 22.3976C56.0733 22.3976 56.5152 22.5581 56.7163 22.9198C58.2033 25.9326 61.4173 30.9159 67.6451 35.2147C81.1854 44.6574 92.556 77.5636 50.0467 77.5636C7.5373 77.5636 18.8683 44.697 32.4086 35.2553C38.5958 30.9159 41.8097 25.9335 43.3374 22.9613C43.5385 22.5996 43.9804 22.4391 44.5828 22.4391C45.7479 22.4391 47.3954 23.0019 48.6011 23.4834C49.0836 23.6845 49.5651 23.7648 50.0476 23.7648C50.5301 23.7648 51.0116 23.6845 51.4941 23.4834C52.6186 22.9603 54.3058 22.3976 55.4709 22.3976ZM55.4709 17.8571C53.9839 17.8571 52.2164 18.2593 50.0061 19.1431C47.7967 18.2593 46.0292 17.8571 44.5422 17.8571C41.1271 17.8571 39.7203 19.9862 39.2378 20.9106C38.0727 23.2011 35.3403 27.6604 29.7961 31.5183C20.395 38.1077 12.801 53.1341 16.5777 65.1072C19.0288 72.8616 26.8229 82.1428 50.0061 82.1428C73.1892 82.1428 80.9843 72.8616 83.4354 65.1072C87.1724 53.1738 79.6181 38.1067 70.217 31.5174C64.6719 27.6595 61.9404 23.2002 60.7743 20.9096C60.2928 19.9862 58.8463 17.8571 55.4709 17.8571Z" fill="#4C2F1B"/>
</g>
<defs>
<clipPath id="clip0_1638_5097">
<rect width="68.8235" height="64.2857" fill="white" transform="translate(15.5879 17.8571)"/>
</clipPath>
</defs>
</svg>
