<svg width="35" height="25" viewBox="0 0 35 25" fill="none" xmlns="http://www.w3.org/2000/svg">
<rect y="0.80957" width="35" height="24" rx="4" fill="#1F72CD"/>
<path fill-rule="evenodd" clip-rule="evenodd" d="M6.68111 9.30957L3.5 16.5563H7.30824L7.78035 15.4009H8.85949L9.3316 16.5563H13.5234V15.6745L13.8969 16.5563H16.0652L16.4387 15.6558V16.5563H25.1566L26.2166 15.4309L27.2092 16.5563L31.6868 16.5656L28.4957 12.9532L31.6868 9.30957H27.2786L26.2467 10.4142L25.2854 9.30957H15.8016L14.9872 11.18L14.1537 9.30957H10.3534V10.1614L9.93068 9.30957H6.68111ZM19.6994 10.3386H24.7055L26.2367 12.0412L27.8172 10.3386H29.3484L27.0219 12.9522L29.3484 15.5356H27.7477L26.2166 13.8132L24.628 15.5356H19.6994V10.3386ZM20.9356 12.3645V11.4153V11.4144H24.0593L25.4223 12.9325L23.9989 14.4589H20.9356V13.4226H23.6667V12.3645H20.9356ZM7.41799 10.3386H9.2743L11.3843 15.2527V10.3386H13.4178L15.0476 13.862L16.5496 10.3386H18.573V15.5386H17.3418L17.3317 11.4639L15.5368 15.5386H14.4355L12.6305 11.4639V15.5386H10.0977L9.61756 14.3729H7.02338L6.54421 15.5376H5.18717L7.41799 10.3386ZM7.46634 13.2952L8.32101 11.2184L9.1747 13.2952H7.46634Z" fill="white"/>
</svg>
