<svg width="26" height="12" viewBox="0 0 26 12" fill="none" xmlns="http://www.w3.org/2000/svg">
<path fill-rule="evenodd" clip-rule="evenodd" d="M3.3462 2.74253C3.81624 2.78218 4.28628 2.50463 4.58006 2.15273C4.86894 1.79092 5.05989 1.3052 5.01093 0.80957C4.59475 0.829396 4.08064 1.08712 3.78686 1.44893C3.51757 1.76118 3.28745 2.26672 3.3462 2.74253ZM8.93774 9.12625V1.39938H11.8021C13.2807 1.39938 14.3138 2.43029 14.3138 3.93701C14.3138 5.44372 13.2611 6.48454 11.7629 6.48454H10.1226V9.12625H8.93774ZM5.006 2.83671C4.5919 2.81258 4.21406 2.96277 3.90886 3.08408C3.71246 3.16215 3.54614 3.22825 3.41961 3.22825C3.27762 3.22825 3.10444 3.15861 2.90999 3.08042C2.65521 2.97796 2.36392 2.86082 2.05845 2.86644C1.35829 2.87636 0.707086 3.27782 0.349659 3.91718C-0.38478 5.1959 0.158705 7.08921 0.868662 8.13003C1.2163 8.64549 1.63248 9.21051 2.18086 9.19068C2.42211 9.18147 2.59566 9.10692 2.77526 9.02978C2.98203 8.94096 3.19683 8.8487 3.53223 8.8487C3.85599 8.8487 4.0614 8.93856 4.25858 9.02482C4.44606 9.10683 4.62611 9.1856 4.89339 9.18077C5.46135 9.17085 5.81878 8.66531 6.16642 8.14986C6.54157 7.59663 6.70643 7.05672 6.73145 6.97478L6.73438 6.9653C6.73378 6.9647 6.72915 6.96255 6.72097 6.95876C6.59556 6.90064 5.63702 6.45644 5.62783 5.26529C5.6186 4.2655 6.38811 3.75894 6.50925 3.6792L6.50926 3.67919C6.51663 3.67434 6.5216 3.67107 6.52384 3.66936C6.03422 2.93583 5.2704 2.85653 5.006 2.83671ZM16.478 9.18569C17.2223 9.18569 17.9126 8.80405 18.226 8.19938H18.2505V9.12621H19.3472V5.28012C19.3472 4.16496 18.4659 3.44629 17.1096 3.44629C15.8513 3.44629 14.921 4.17487 14.8867 5.17604H15.9541C16.0423 4.70024 16.478 4.38799 17.0754 4.38799C17.8 4.38799 18.2064 4.72997 18.2064 5.35942V5.78567L16.7277 5.87488C15.3519 5.95914 14.6077 6.52911 14.6077 7.52037C14.6077 8.52154 15.3764 9.18569 16.478 9.18569ZM16.7962 8.26881C16.1646 8.26881 15.7631 7.96152 15.7631 7.49067C15.7631 7.00495 16.1499 6.72245 16.8893 6.67784L18.2063 6.59358V7.02974C18.2063 7.75335 17.5992 8.26881 16.7962 8.26881ZM22.9851 9.42856C22.5102 10.7816 21.9667 11.2277 20.8112 11.2277C20.7231 11.2277 20.4293 11.2178 20.3607 11.198V10.2711C20.4342 10.281 20.6153 10.291 20.7084 10.291C21.2323 10.291 21.526 10.0679 21.7072 9.48803L21.8149 9.14605L19.8075 3.52065H21.0462L22.4416 8.0854H22.4661L23.8616 3.52065H25.066L22.9851 9.42856ZM10.1225 2.41044H11.4886C12.5168 2.41044 13.1044 2.96555 13.1044 3.94194C13.1044 4.91833 12.5168 5.47839 11.4837 5.47839H10.1225V2.41044Z" fill="black"/>
</svg>
