<svg width="27" height="10" viewBox="0 0 27 10" fill="none" xmlns="http://www.w3.org/2000/svg">
<path fill-rule="evenodd" clip-rule="evenodd" d="M2.63974 6.57638C2.44832 6.68258 2.24451 6.73558 2.02846 6.73558H1.86174C1.81843 6.73558 1.75658 6.73197 1.57797 6.70034L2.18189 4.13075C2.293 4.03091 2.41285 3.9661 2.55179 3.93475C2.69074 3.90355 2.78023 3.89513 2.86677 3.89513C3.13214 3.89513 3.33749 3.97218 3.43635 4.14086C3.53507 4.30941 3.58453 4.54361 3.58453 4.84334C3.58453 5.08695 3.5443 5.32116 3.46412 5.54595C3.3838 5.77074 3.27424 5.97212 3.13536 6.15014C2.99641 6.32809 2.83109 6.47024 2.63974 6.57638ZM4.00138 2.88563C3.78512 2.7795 3.52898 2.72636 3.23254 2.72636C3.09045 2.72636 2.95772 2.742 2.83431 2.7732C2.71068 2.80455 2.59426 2.84495 2.47085 2.90113L3.03811 0.487549L1.60238 0.712343L0 7.52246C0.179038 7.60998 0.36885 7.67862 0.569646 7.7285C0.770233 7.77845 0.960115 7.81588 1.13922 7.84093C1.31826 7.86584 1.47736 7.87985 1.61631 7.8831C1.75525 7.88615 1.8525 7.88777 1.90806 7.88777C2.34022 7.88777 2.74168 7.80492 3.11213 7.63949C3.48266 7.47413 3.80366 7.24934 4.07547 6.96511C4.34714 6.68095 4.56172 6.34683 4.71921 5.96277C4.8767 5.5787 4.9554 5.17121 4.9554 4.74031C4.9554 4.45933 4.92133 4.19704 4.85347 3.95349C4.78546 3.70988 4.68052 3.49768 4.53856 3.31647C4.39646 3.1354 4.21742 2.99184 4.00138 2.88563ZM7.79866 2.12519L8.0096 1.22778H6.63425L6.42331 2.12519H7.79866ZM9.37118 6.62162C9.47227 6.67292 9.61157 6.69839 9.78879 6.69839C9.94068 6.69839 10.0878 6.68403 10.2302 6.65523C10.3233 6.63641 10.4199 6.61419 10.5161 6.58101L10.2297 7.79272C10.2072 7.79823 10.1724 7.80673 10.1495 7.81203C9.92795 7.86319 9.66538 7.8888 9.36166 7.8888C8.92495 7.8888 8.58632 7.82314 8.34593 7.69203C8.10532 7.56092 7.93447 7.38169 7.8333 7.15442C7.73199 6.92729 7.68764 6.66648 7.70044 6.37199C7.71303 6.07772 7.75739 5.76717 7.8333 5.44076L8.76361 1.46629L10.235 1.23584L9.87422 2.72392H11.45L11.1653 3.89516H9.59898L9.1813 5.6616C9.1433 5.80891 9.11959 5.94646 9.11007 6.07439C9.10063 6.20246 9.1163 6.31291 9.15758 6.4056C9.19865 6.49844 9.2698 6.57047 9.37118 6.62162ZM26.5 2.72549H25.1247L24.3248 6.12916H24.3262L24.2163 6.59736C24.1395 6.61915 24.0631 6.63875 23.9873 6.65411C23.8449 6.6829 23.6977 6.69734 23.5459 6.69734C23.3686 6.69734 23.2293 6.67179 23.1282 6.6205C23.0269 6.56934 22.9557 6.49738 22.9146 6.40448C22.8734 6.31178 22.8576 6.2014 22.8671 6.07326C22.8767 5.94534 22.9004 5.80779 22.9384 5.66047L23.356 3.89403L23.6313 2.7228L23.6314 2.72244H22.2263L21.5904 5.43971C21.5145 5.76611 21.4701 6.07659 21.4575 6.37094C21.4447 6.66536 21.4891 6.92624 21.5904 7.15329C21.6915 7.38056 21.8624 7.55986 22.103 7.69097C22.3434 7.82201 22.682 7.88775 23.1187 7.88775C23.4224 7.88775 23.685 7.86213 23.9066 7.81091C23.9155 7.80885 23.9242 7.80666 23.9329 7.80447L23.9323 7.80701C23.8707 8.08735 23.746 8.31469 23.5459 8.49215C23.3456 8.66975 23.0484 8.75855 22.6543 8.75855C22.486 8.75855 22.3332 8.74843 22.1946 8.72904L21.924 9.88082C22.107 9.90481 22.31 9.91719 22.5342 9.91719C22.953 9.91719 23.3196 9.86879 23.6337 9.77228C23.9479 9.6757 24.2172 9.52937 24.4421 9.33309C24.6669 9.13688 24.8547 8.89072 25.0057 8.59503C25.1566 8.29906 25.2782 7.94881 25.3707 7.5438L26.3223 3.49786L26.3189 3.49638L26.5 2.72549ZM5.06668 7.88876L6.28083 2.72253H7.65618L6.44203 7.88876H5.06668ZM19.7542 3.8951C19.1129 3.8951 18.9905 3.8951 18.7277 4.03293C18.5412 4.13072 18.3868 4.27775 18.2512 4.44926C18.1155 4.62085 18.0091 4.81882 17.9321 5.04333C17.8549 5.26799 17.8164 5.50184 17.8164 5.7451C17.8164 6.04447 17.8657 6.28164 17.9645 6.4562C18.063 6.6309 18.245 6.71814 18.5103 6.71814C18.6521 6.71814 18.7801 6.69012 18.8942 6.63394C19.0083 6.57783 19.1302 6.48422 19.2597 6.35325C19.272 6.19744 19.2921 6.03371 19.3198 5.86206C19.3452 5.70531 19.3767 5.55898 19.4056 5.42526L19.4137 5.38799L19.7542 3.8951ZM20.7307 5.63281C20.6443 5.98844 20.6196 6.34548 20.6566 6.70414C20.6937 7.06295 20.8294 7.61259 20.9617 7.88776H19.6308C19.5096 7.68051 19.4828 7.55533 19.4643 7.4688C19.4579 7.4392 19.4526 7.41412 19.4447 7.39183C19.272 7.53539 19.0808 7.65384 18.8712 7.74738C18.6614 7.84092 18.427 7.88776 18.168 7.88776C17.8596 7.88776 17.5959 7.83306 17.377 7.72403C17.158 7.61492 16.9791 7.46831 16.8404 7.28428C16.7016 7.10038 16.6012 6.88514 16.5398 6.63869C16.478 6.39232 16.4472 6.12875 16.4472 5.84806C16.4472 5.41764 16.5226 5.01221 16.6739 4.63175C16.8249 4.25129 17.0347 3.91909 17.303 3.63521C17.5712 3.35141 18.2187 2.72557 19.2813 2.72557L21.415 2.72549L20.7307 5.63281ZM12.6838 6.70056C12.7893 6.72575 12.9197 6.73827 13.075 6.73827C13.3171 6.73827 13.5375 6.69277 13.7363 6.60171C13.9349 6.51072 14.1042 6.38357 14.2439 6.22019C14.3836 6.05695 14.4921 5.86082 14.5698 5.63149C14.6474 5.40231 14.6863 5.14964 14.6863 4.87327C14.6863 4.60333 14.6272 4.37401 14.5093 4.18565C14.3913 3.99723 14.1844 3.89711 13.8926 3.8959C13.6886 3.89513 13.3497 3.89513 13.3497 3.89513L12.6838 6.70056ZM16.0647 4.76963C16.0647 5.22813 15.9902 5.64729 15.8412 6.02711C15.6922 6.40715 15.4857 6.73524 15.2218 7.01141C14.9578 7.28785 14.6411 7.50288 14.2718 7.65671C13.9023 7.81046 13.5002 7.88745 13.0656 7.88745C12.8545 7.88745 12.6433 7.86862 12.4323 7.83091L12.0132 9.53579H10.6347L12.2348 2.72568L13.5929 2.72566L14.0716 2.72568C14.4192 2.72568 14.7189 2.7791 14.9703 2.8858C15.2218 2.99264 15.4282 3.13861 15.5897 3.32379C15.7511 3.5091 15.8706 3.72575 15.9483 3.97368C16.0258 4.2219 16.0647 4.48709 16.0647 4.76963Z" fill="#002855"/>
</svg>
