<svg width="23" height="15" viewBox="0 0 23 15" fill="none" xmlns="http://www.w3.org/2000/svg">
<path fill-rule="evenodd" clip-rule="evenodd" d="M11.75 12.9665C10.5584 13.9948 9.01276 14.6155 7.32377 14.6155C3.55511 14.6155 0.5 11.525 0.5 7.71256C0.5 3.90014 3.55511 0.80957 7.32377 0.80957C9.01276 0.80957 10.5584 1.43032 11.75 2.4586C12.9416 1.43032 14.4872 0.80957 16.1762 0.80957C19.9449 0.80957 23 3.90014 23 7.71256C23 11.525 19.9449 14.6155 16.1762 14.6155C14.4872 14.6155 12.9416 13.9948 11.75 12.9665Z" fill="#ED0006"/>
<path fill-rule="evenodd" clip-rule="evenodd" d="M11.75 12.9665C13.2172 11.7004 14.1475 9.81637 14.1475 7.71256C14.1475 5.60874 13.2172 3.72474 11.75 2.4586C12.9416 1.43032 14.4872 0.80957 16.1762 0.80957C19.9449 0.80957 23 3.90014 23 7.71256C23 11.525 19.9449 14.6155 16.1762 14.6155C14.4872 14.6155 12.9416 13.9948 11.75 12.9665Z" fill="#F9A000"/>
<path fill-rule="evenodd" clip-rule="evenodd" d="M11.75 2.45862C13.2172 3.72475 14.1476 5.60874 14.1476 7.71254C14.1476 9.81635 13.2172 11.7003 11.75 12.9665C10.2829 11.7003 9.35254 9.81635 9.35254 7.71254C9.35254 5.60874 10.2829 3.72475 11.75 2.45862Z" fill="#FF5E00"/>
</svg>
