<svg width="20" height="19" viewBox="0 0 20 19" fill="none" xmlns="http://www.w3.org/2000/svg">
<path fill-rule="evenodd" clip-rule="evenodd" d="M2.40001 13.0505H0.844392C0.737939 13.0505 0.647402 13.1279 0.630802 13.233L0.00163188 17.222C-0.0108734 17.3008 0.0500852 17.3717 0.129927 17.3717H0.872593C0.979045 17.3717 1.06958 17.2943 1.08618 17.1891L1.25588 16.1132C1.27225 16.0078 1.363 15.9305 1.46924 15.9305H1.96169C2.98643 15.9305 3.5778 15.4346 3.73233 14.452C3.8019 14.0221 3.73527 13.6843 3.5339 13.4477C3.31285 13.188 2.92064 13.0505 2.40001 13.0505ZM2.57948 14.5075C2.49443 15.0657 2.06792 15.0657 1.65553 15.0657H1.42078L1.58547 14.0232C1.59525 13.9602 1.64984 13.9138 1.71353 13.9138H1.82112C2.10204 13.9138 2.36706 13.9138 2.50401 14.0739C2.58559 14.1695 2.61064 14.3114 2.57948 14.5075ZM7.05012 14.4896H6.30517C6.2417 14.4896 6.18686 14.536 6.17707 14.5991L6.14412 14.8074L6.09202 14.7319C5.93075 14.4978 5.57117 14.4196 5.21222 14.4196C4.38896 14.4196 3.6859 15.0431 3.54896 15.9177C3.4778 16.3539 3.57896 16.7711 3.82643 17.062C4.05348 17.3295 4.37833 17.441 4.76475 17.441C5.42801 17.441 5.79591 17.0144 5.79591 17.0144L5.76265 17.2215C5.75012 17.3007 5.81107 17.3716 5.89044 17.3716H6.56149C6.66823 17.3716 6.75823 17.2942 6.77507 17.189L7.1777 14.6393C7.19044 14.5609 7.1297 14.4896 7.05012 14.4896ZM6.0117 15.9395C5.9398 16.3651 5.60201 16.6508 5.17128 16.6508C4.95496 16.6508 4.78201 16.5814 4.67106 16.4499C4.56096 16.3194 4.51906 16.1335 4.55412 15.9265C4.62127 15.5045 4.96475 15.2096 5.38896 15.2096C5.60044 15.2096 5.77244 15.2798 5.8857 15.4124C5.99917 15.5464 6.04423 15.7334 6.0117 15.9395ZM10.269 14.4895H11.0176C11.1224 14.4895 11.1836 14.6071 11.124 14.6931L8.63423 18.287C8.59392 18.3452 8.5275 18.3798 8.45655 18.3798H7.70886C7.6036 18.3798 7.54212 18.2613 7.60307 18.1751L8.37834 17.0808L7.55381 14.661C7.52528 14.5769 7.58739 14.4895 7.67686 14.4895H8.41244C8.50802 14.4895 8.59234 14.5522 8.61992 14.6437L9.0575 16.1052L10.09 14.5843C10.1304 14.525 10.1976 14.4895 10.269 14.4895Z" fill="#253B80"/>
<path fill-rule="evenodd" clip-rule="evenodd" d="M18.3854 17.222L19.0238 13.16C19.0336 13.0969 19.0882 13.0505 19.1517 13.0503H19.8705C19.9498 13.0503 20.0108 13.1215 19.9982 13.2002L19.3687 17.189C19.3522 17.2943 19.2617 17.3717 19.1551 17.3717H18.5132C18.4338 17.3717 18.3729 17.3007 18.3854 17.222ZM13.496 13.0505H11.9401C11.8339 13.0505 11.7434 13.1279 11.7267 13.2329L11.0976 17.222C11.0851 17.3007 11.146 17.3717 11.2255 17.3717H12.0238C12.098 17.3717 12.1615 17.3176 12.1731 17.2439L12.3516 16.1131C12.368 16.0078 12.4587 15.9305 12.565 15.9305H13.0572C14.0821 15.9305 14.6734 15.4346 14.828 14.452C14.8978 14.0221 14.8308 13.6843 14.6295 13.4477C14.4085 13.188 14.0166 13.0505 13.496 13.0505ZM13.6755 14.5075C13.5906 15.0657 13.1641 15.0657 12.7515 15.0657H12.517L12.6819 14.0231C12.6917 13.9602 12.7458 13.9138 12.8097 13.9138H12.9173C13.198 13.9138 13.4633 13.9138 13.6001 14.0739C13.6818 14.1695 13.7066 14.3113 13.6755 14.5075ZM18.1457 14.4896H17.4013C17.3373 14.4896 17.283 14.536 17.2734 14.599L17.2404 14.8074L17.1881 14.7319C17.0269 14.4978 16.6675 14.4196 16.3085 14.4196C15.4853 14.4196 14.7824 15.043 14.6455 15.9177C14.5745 16.3539 14.6753 16.771 14.9228 17.062C15.1502 17.3295 15.4746 17.4409 15.8611 17.4409C16.5243 17.4409 16.8921 17.0144 16.8921 17.0144L16.859 17.2215C16.8464 17.3006 16.9074 17.3716 16.9873 17.3716H17.658C17.7642 17.3716 17.8548 17.2942 17.8714 17.1889L18.2742 14.6392C18.2865 14.5608 18.2256 14.4896 18.1457 14.4896ZM17.1074 15.9395C17.0359 16.365 16.6977 16.6507 16.2669 16.6507C16.051 16.6507 15.8777 16.5814 15.7666 16.4499C15.6565 16.3194 15.6152 16.1335 15.6498 15.9265C15.7173 15.5045 16.0603 15.2096 16.4845 15.2096C16.6961 15.2096 16.868 15.2798 16.9814 15.4124C17.0953 15.5464 17.1403 15.7334 17.1074 15.9395Z" fill="#179BD7"/>
<path d="M8.15714 11.6235L8.3484 10.4088L7.9224 10.3989H5.88818L7.30187 1.43504C7.30619 1.40797 7.3205 1.38274 7.34134 1.36483C7.36219 1.34691 7.38892 1.33704 7.41671 1.33704H10.8467C11.9855 1.33704 12.7713 1.57399 13.1816 2.04169C13.3739 2.2611 13.4964 2.49038 13.5557 2.74269C13.6178 3.00745 13.6189 3.32376 13.5582 3.70955L13.5538 3.7377V3.98489L13.7462 4.09387C13.9082 4.1798 14.0368 4.27817 14.1356 4.3908C14.3002 4.57839 14.4066 4.81681 14.4516 5.09948C14.498 5.39019 14.4826 5.73612 14.4066 6.12776C14.3188 6.57828 14.1769 6.97065 13.9854 7.29171C13.809 7.58755 13.5845 7.83286 13.318 8.02307C13.0635 8.20371 12.761 8.34086 12.4191 8.42865C12.0878 8.51486 11.7101 8.55844 11.2958 8.55844H11.0288C10.838 8.55844 10.6525 8.62718 10.507 8.75044C10.3611 8.87623 10.2645 9.04802 10.2349 9.23602L10.2148 9.34539L9.87693 11.4863L9.86156 11.565C9.85756 11.5899 9.85061 11.6023 9.8404 11.6108C9.83125 11.6183 9.81809 11.6235 9.80524 11.6235H8.15714Z" fill="#253B80"/>
<path d="M13.9281 3.76636C13.9179 3.83181 13.9062 3.89873 13.8931 3.96747C13.4407 6.28989 11.8932 7.09219 9.91665 7.09219H8.91033C8.66864 7.09219 8.46496 7.2677 8.42727 7.50612L7.91201 10.7738L7.76611 11.7001C7.74159 11.8566 7.86233 11.9977 8.02022 11.9977H9.80517C10.0165 11.9977 10.196 11.8442 10.2293 11.6357L10.2469 11.545L10.583 9.41237L10.6045 9.29542C10.6374 9.08626 10.8173 8.93268 11.0286 8.93268H11.2956C13.0249 8.93268 14.3787 8.23058 14.7743 6.19884C14.9396 5.3501 14.854 4.64142 14.4167 4.143C14.2843 3.99271 14.1201 3.86801 13.9281 3.76636Z" fill="#179BD7"/>
<path d="M13.4549 3.57776C13.3859 3.55765 13.3145 3.53936 13.2414 3.52291C13.1679 3.50683 13.0925 3.49256 13.015 3.48013C12.7437 3.43625 12.4464 3.41541 12.1279 3.41541H9.43946C9.37325 3.41541 9.31041 3.43039 9.25409 3.45746C9.13009 3.51706 9.03798 3.63445 9.01567 3.77815L8.44367 7.40055L8.42725 7.50623C8.46493 7.2678 8.66862 7.09228 8.9103 7.09228H9.91662C11.8931 7.09228 13.4407 6.28962 13.893 3.96758C13.9065 3.89883 13.9179 3.83191 13.9281 3.76646C13.8137 3.70575 13.6897 3.65383 13.5562 3.60957C13.5234 3.59861 13.4894 3.58801 13.4549 3.57776Z" fill="#222D65"/>
<path d="M9.01557 3.77811C9.03788 3.6344 9.13009 3.51702 9.25399 3.45778C9.31073 3.43071 9.37325 3.41572 9.43936 3.41572H12.1279C12.4464 3.41572 12.7437 3.43656 13.0149 3.48045C13.0925 3.49288 13.1679 3.50714 13.2414 3.52323C13.3145 3.53969 13.3858 3.55798 13.4549 3.57808C13.4893 3.58832 13.5233 3.59892 13.5565 3.60953C13.69 3.65378 13.814 3.70607 13.9284 3.76641C14.0631 2.90816 13.9274 2.32381 13.4634 1.79468C12.9518 1.21216 12.0284 0.962769 10.8469 0.962769H7.41683C7.17546 0.962769 6.96967 1.13828 6.9323 1.37707L5.50367 10.4331C5.47546 10.6122 5.61367 10.7739 5.7943 10.7739H7.91199L8.44367 7.4005L9.01557 3.77811Z" fill="#253B80"/>
</svg>
