<svg width="25" height="9" viewBox="0 0 25 9" fill="none" xmlns="http://www.w3.org/2000/svg">
<path fill-rule="evenodd" clip-rule="evenodd" d="M6.12526 8.06782H4.00494L2.41495 2.00194C2.33949 1.72291 2.17925 1.47624 1.94354 1.35997C1.35531 1.0678 0.707118 0.835275 0 0.718002V0.484466H3.41567C3.88708 0.484466 4.24064 0.835275 4.29957 1.2427L5.12454 5.61822L7.24383 0.484466H9.30522L6.12526 8.06782ZM10.4838 8.06782H8.48129L10.1302 0.484466H12.1327L10.4838 8.06782ZM14.7234 2.58528C14.7823 2.17685 15.1359 1.94331 15.5483 1.94331C16.1965 1.88468 16.9026 2.00195 17.4919 2.29311L17.8454 0.66038C17.2562 0.426844 16.608 0.30957 16.0198 0.30957C14.0762 0.30957 12.662 1.35998 12.662 2.81781C12.662 3.92685 13.6637 4.50918 14.3708 4.85999C15.1359 5.20978 15.4305 5.44332 15.3716 5.79312C15.3716 6.31782 14.7823 6.55135 14.1941 6.55135C13.4869 6.55135 12.7798 6.37645 12.1327 6.08428L11.7791 7.71802C12.4862 8.00919 13.2512 8.12646 13.9584 8.12646C16.1376 8.18408 17.4919 7.13469 17.4919 5.55958C17.4919 3.57604 14.7234 3.45978 14.7234 2.58528ZM24.5 8.06782L22.91 0.484466H21.2022C20.8486 0.484466 20.4951 0.718002 20.3772 1.0678L17.4329 8.06782H19.4943L19.9058 6.95978H22.4386L22.6743 8.06782H24.5ZM21.4968 2.52665L22.085 5.38469H20.4361L21.4968 2.52665Z" fill="#172B85"/>
</svg>
