<svg width="8" height="13" viewBox="0 0 8 13" fill="none" xmlns="http://www.w3.org/2000/svg">
<path d="M5.60101 2.85065H7.20939C7.35736 2.85065 7.47745 2.73748 7.47745 2.59805V1.08246C7.47745 0.943028 7.35736 0.829865 7.20939 0.829865H5.60101C3.97548 0.829865 2.65232 2.07618 2.65232 3.60844V5.37663H0.775876C0.627905 5.37663 0.507812 5.48979 0.507812 5.62923V7.14481C0.507812 7.28425 0.627905 7.39741 0.775876 7.39741H2.65232V12.702C2.65232 12.8414 2.77241 12.9546 2.92038 12.9546H4.52876C4.67673 12.9546 4.79682 12.8414 4.79682 12.702V7.39741H6.67326C6.78853 7.39741 6.89093 7.32769 6.92792 7.22463L7.46405 5.70905C7.49139 5.63226 7.47745 5.54738 7.42706 5.4812C7.37612 5.41553 7.2957 5.37663 7.20939 5.37663H4.79682V3.60844C4.79682 3.19064 5.15763 2.85065 5.60101 2.85065Z" fill="#0A142F"/>
</svg>
