<svg width="14" height="14" viewBox="0 0 14 14" fill="none" xmlns="http://www.w3.org/2000/svg">
<path d="M7.6932 0.66412C8.17969 0.662253 8.66619 0.667142 9.15254 0.678787L9.28187 0.683453C9.43121 0.688787 9.57854 0.695453 9.75654 0.703453C10.4659 0.736787 10.9499 0.848787 11.3745 1.01345C11.8145 1.18279 12.1852 1.41212 12.5559 1.78279C12.8948 2.11586 13.1571 2.51875 13.3245 2.96345C13.4892 3.38812 13.6012 3.87279 13.6345 4.58212C13.6425 4.75945 13.6492 4.90745 13.6545 5.05679L13.6585 5.18612C13.6704 5.67225 13.6755 6.15852 13.6739 6.64479L13.6745 7.14212V8.01545C13.6762 8.50195 13.6711 8.98844 13.6592 9.47479L13.6552 9.60412C13.6499 9.75345 13.6432 9.90079 13.6352 10.0788C13.6019 10.7881 13.4885 11.2721 13.3245 11.6968C13.1576 12.142 12.8953 12.5452 12.5559 12.8781C12.2225 13.217 11.8194 13.4793 11.3745 13.6468C10.9499 13.8115 10.4659 13.9235 9.75654 13.9568C9.57854 13.9648 9.43121 13.9715 9.28187 13.9768L9.15254 13.9808C8.66619 13.9926 8.1797 13.9978 7.6932 13.9961L7.19587 13.9968H6.3232C5.83671 13.9984 5.35022 13.9933 4.86387 13.9815L4.73454 13.9775C4.57628 13.9717 4.41805 13.965 4.25987 13.9575C3.55054 13.9241 3.06654 13.8108 2.6412 13.6468C2.19633 13.4797 1.79336 13.2173 1.46054 12.8781C1.12124 12.545 0.858688 12.1418 0.691205 11.6968C0.526538 11.2721 0.414538 10.7881 0.381205 10.0788C0.37378 9.9206 0.367113 9.76237 0.361205 9.60412L0.357872 9.47479C0.345581 8.98844 0.340025 8.50195 0.341205 8.01545V6.64479C0.339344 6.15852 0.344234 5.67225 0.355872 5.18612L0.360538 5.05679C0.365872 4.90745 0.372538 4.75945 0.380538 4.58212C0.413872 3.87212 0.525872 3.38879 0.690538 2.96345C0.85812 2.51853 1.12118 2.11575 1.46121 1.78345C1.7938 1.44395 2.19651 1.18117 2.6412 1.01345C3.06654 0.848787 3.54987 0.736787 4.25987 0.703453L4.73454 0.683453L4.86387 0.68012C5.34999 0.667835 5.83626 0.662279 6.32254 0.663453L7.6932 0.66412ZM7.00787 3.99745C6.56621 3.99121 6.12771 4.0728 5.71786 4.2375C5.308 4.40219 4.93497 4.64671 4.62044 4.95682C4.3059 5.26694 4.05614 5.63648 3.88566 6.04396C3.71519 6.45145 3.6274 6.88875 3.6274 7.33045C3.6274 7.77216 3.71519 8.20946 3.88566 8.61695C4.05614 9.02443 4.3059 9.39397 4.62044 9.70408C4.93497 10.0142 5.308 10.2587 5.71786 10.4234C6.12771 10.5881 6.56621 10.6697 7.00787 10.6635C7.89193 10.6635 8.73977 10.3123 9.36489 9.68714C9.99002 9.06202 10.3412 8.21418 10.3412 7.33012C10.3412 6.44607 9.99002 5.59822 9.36489 4.9731C8.73977 4.34798 7.89193 3.99745 7.00787 3.99745ZM7.00787 5.33079C7.27354 5.32589 7.53753 5.37398 7.7844 5.47226C8.03128 5.57053 8.2561 5.71701 8.44572 5.90315C8.63535 6.08928 8.78599 6.31134 8.88883 6.55635C8.99168 6.80135 9.04467 7.0644 9.04472 7.33011C9.04476 7.59583 8.99186 7.85889 8.88909 8.10393C8.78633 8.34897 8.63577 8.57108 8.4462 8.75728C8.25663 8.94348 8.03186 9.09003 7.78502 9.18839C7.53818 9.28675 7.27421 9.33493 7.00854 9.33012C6.47811 9.33012 5.9694 9.11941 5.59433 8.74433C5.21925 8.36926 5.00854 7.86055 5.00854 7.33012C5.00854 6.79969 5.21925 6.29098 5.59433 5.91591C5.9694 5.54083 6.47811 5.33012 7.00854 5.33012L7.00787 5.33079ZM10.5079 2.99745C10.2928 3.00606 10.0894 3.09755 9.94028 3.25277C9.79115 3.40798 9.70786 3.61488 9.70786 3.83012C9.70786 4.04536 9.79115 4.25226 9.94028 4.40747C10.0894 4.56269 10.2928 4.65418 10.5079 4.66279C10.7289 4.66279 10.9408 4.57499 11.0971 4.41871C11.2534 4.26243 11.3412 4.05047 11.3412 3.82945C11.3412 3.60844 11.2534 3.39648 11.0971 3.2402C10.9408 3.08392 10.7289 2.99612 10.5079 2.99612V2.99745Z" fill="black"/>
</svg>
