<svg width="13" height="13" viewBox="0 0 13 13" fill="none" xmlns="http://www.w3.org/2000/svg">
<path d="M1.99136 3.79721C2.8107 3.79721 3.47491 3.133 3.47491 2.31366C3.47491 1.49432 2.8107 0.830109 1.99136 0.830109C1.17202 0.830109 0.507812 1.49432 0.507812 2.31366C0.507812 3.133 1.17202 3.79721 1.99136 3.79721Z" fill="#0A142F"/>
<path d="M3.22765 4.78812H0.755071C0.618584 4.78812 0.507812 4.89889 0.507812 5.03537V12.4531C0.507812 12.5896 0.618584 12.7004 0.755071 12.7004H3.22765C3.36414 12.7004 3.47491 12.5896 3.47491 12.4531V5.03537C3.47491 4.89889 3.36414 4.78812 3.22765 4.78812Z" fill="#0A142F"/>
<path d="M10.5959 4.37675C9.53907 4.01477 8.21723 4.33274 7.42452 4.90292C7.39732 4.7966 7.3004 4.71748 7.18517 4.71748H4.71259C4.5761 4.71748 4.46533 4.82825 4.46533 4.96473V12.3825C4.46533 12.519 4.5761 12.6297 4.71259 12.6297H7.18517C7.32166 12.6297 7.43243 12.519 7.43243 12.3825V7.05159C7.832 6.70741 8.34679 6.59763 8.76812 6.77664C9.17659 6.94923 9.4105 7.37056 9.4105 7.93183V12.3825C9.4105 12.519 9.52127 12.6297 9.65776 12.6297H12.1303C12.2668 12.6297 12.3776 12.519 12.3776 12.3825V7.43385C12.3494 5.40189 11.3935 4.64973 10.5959 4.37675Z" fill="#0A142F"/>
</svg>
